<svg xmlns="http://www.w3.org/2000/svg" width="81.86" height="80.3" viewBox="0 0 81.86 80.3">
  <g id="logo-only-white" transform="translate(-2.999 -3)">
    <path id="パス_314" data-name="パス 314" d="M3.9,83.3h17a2.748,2.748,0,0,0,2.2-1.2L69.9,5.2A1.443,1.443,0,0,0,68.6,3H52.5a2.144,2.144,0,0,0-1.9,1.1L3.1,81.9A.962.962,0,0,0,3.9,83.3Z" fill="#fff"/>
    <path id="パス_315" data-name="パス 315" d="M62.5,82.1,84.6,46.6a1.627,1.627,0,0,0-1.4-2.5h-16a1.763,1.763,0,0,0-1.5.8L43,81.2a1.375,1.375,0,0,0,1.2,2.1H60.5A2.2,2.2,0,0,0,62.5,82.1Z" fill="#fff"/>
  </g>
</svg>
