<svg xmlns="http://www.w3.org/2000/svg" xmlns:xlink="http://www.w3.org/1999/xlink" width="2389.472" height="286" viewBox="0 0 2389.472 286">
  <defs>
    <clipPath id="clip-path">
      <rect id="長方形_2" data-name="長方形 2" width="286" height="286" rx="73" transform="translate(113 397)" fill="none" stroke="red" stroke-width="40"/>
    </clipPath>
    <filter id="長方形_1" x="-10" y="-10" width="306" height="306" filterUnits="userSpaceOnUse">
      <feOffset input="SourceAlpha"/>
      <feGaussianBlur stdDeviation="5" result="blur"/>
      <feFlood flood-color="#00a2ff"/>
      <feComposite operator="in" in2="blur"/>
      <feComposite in="SourceGraphic"/>
    </filter>
    <filter id="長方形_3" x="-38" y="-38" width="362" height="362" filterUnits="userSpaceOnUse">
      <feOffset input="SourceAlpha"/>
      <feGaussianBlur stdDeviation="10" result="blur-2"/>
      <feFlood flood-color="#2c00ff"/>
      <feComposite operator="in" in2="blur-2"/>
      <feComposite in="SourceGraphic"/>
    </filter>
    <filter id="長方形_4" x="-38" y="-38" width="362" height="362" filterUnits="userSpaceOnUse">
      <feOffset input="SourceAlpha"/>
      <feGaussianBlur stdDeviation="10" result="blur-3"/>
      <feFlood flood-color="#06f"/>
      <feComposite operator="in" in2="blur-3"/>
      <feComposite in="SourceGraphic"/>
    </filter>
  </defs>
  <g id="namelogo_white" transform="translate(-113 -397)">
    <g id="マスクグループ_33" data-name="マスクグループ 33" clip-path="url(#clip-path)">
      <g id="グループ_1" data-name="グループ 1" transform="translate(-293 71)">
        <g transform="matrix(1, 0, 0, 1, 406, 326)" filter="url(#長方形_1)">
          <g id="長方形_1-2" data-name="長方形 1" transform="translate(5 5)" fill="none" stroke="#fff" stroke-width="20">
            <rect width="276" height="276" rx="75" stroke="none"/>
            <rect x="10" y="10" width="256" height="256" rx="65" fill="none"/>
          </g>
        </g>
        <g transform="matrix(1, 0, 0, 1, 406, 326)" filter="url(#長方形_3)">
          <g id="長方形_3-2" data-name="長方形 3" transform="translate(-8 -8)" fill="none" stroke="#fff" stroke-width="30">
            <rect width="302" height="302" rx="74" stroke="none"/>
            <rect x="15" y="15" width="272" height="272" rx="59" fill="none"/>
          </g>
        </g>
        <g transform="matrix(1, 0, 0, 1, 406, 326)" filter="url(#長方形_4)">
          <g id="長方形_4-2" data-name="長方形 4" transform="translate(-8 -8)" fill="none" stroke="#fff" stroke-width="30">
            <rect width="302" height="302" rx="74" stroke="none"/>
            <rect x="15" y="15" width="272" height="272" rx="59" fill="none"/>
          </g>
        </g>
      </g>
    </g>
    <path id="パス_302" data-name="パス 302" d="M236.84-167.9l-19.592-18.352c-4.712,1.488-18.352,2.232-25.3,2.232H58.28a196.61,196.61,0,0,1-30.256-2.48v34.472c11.656-.992,19.84-1.736,30.256-1.736H187.488c-6.448,12.152-25.792,33.976-45.632,46.128l25.792,20.584c24.3-17.36,47.864-48.608,59.52-67.952A124.866,124.866,0,0,1,236.84-167.9Zm-101.184,33.48H99.7a137.482,137.482,0,0,1,1.736,22.32c0,40.672-5.952,66.96-37.448,88.784a97.993,97.993,0,0,1-26.04,13.64L66.96,13.888C134.416-22.32,135.656-72.912,135.656-134.416Zm286.936-47.368a14.394,14.394,0,0,1,14.384-14.384,14.344,14.344,0,0,1,14.136,14.384,14.291,14.291,0,0,1-14.136,14.136A14.344,14.344,0,0,1,422.592-181.784Zm-15.376,0a27.467,27.467,0,0,0,.5,4.712,107.006,107.006,0,0,1-14.136.992H278.752a276.133,276.133,0,0,1-29.512-1.984V-143.1c6.2-.5,18.1-.992,29.512-.992h115.32c-3.224,21.328-12.648,49.352-29.016,69.936-20.088,25.3-48.112,46.872-97.216,58.28l27.032,29.76c44.144-14.384,77.376-38.936,99.7-68.7,20.832-27.528,31.5-65.968,37.2-90.272.744-2.232,1.24-4.712,1.984-7.44a14.141,14.141,0,0,0,3.224.248,29.744,29.744,0,0,0,29.512-29.512,29.8,29.8,0,0,0-29.512-29.76A29.848,29.848,0,0,0,407.216-181.784Zm238.328-10.664H608.1a174.95,174.95,0,0,1,1.488,24.8v47.12c0,38.688-3.224,57.288-20.336,75.888-14.88,16.12-34.968,25.544-59.52,31.248l25.792,27.28c18.1-5.7,43.9-17.856,60.264-35.712,18.352-20.336,28.768-43.4,28.768-96.72v-49.1C644.552-177.568,645.048-185.5,645.544-192.448Zm-115.072,1.984H494.76a176.092,176.092,0,0,1,.992,19.1v83.576c0,7.44-.992,17.112-1.24,21.824h35.96c-.5-5.7-.744-15.376-.744-21.576v-83.824C529.728-179.3,529.976-184.76,530.472-190.464Zm226.92,10.912V-166.9H718.456v-12.648Zm-38.936,45.384V-147.56h38.936v13.392Zm66.712,21.328v-87.792h-95.48V21.576h28.768V-112.84ZM781.2-58.28v-18.6h23.064v18.6Zm76.136,24.056V-58.28h-27.28v-18.6h23.312v-23.312H733.584V-76.88h22.568v18.6h-26.04v24.056H755.16c-2.48,12.648-9.424,28.768-25.3,38.688,5.7,3.968,14.632,11.656,18.848,16.864,21.08-14.384,29.264-38.44,31.744-55.552h23.808V16.864h25.792V-34.224ZM829.56-133.672V-147.56h40.176v13.888Zm40.176-45.88V-166.9H829.56v-12.648Zm29.016-21.08H801.536v88.288h68.2v99.2c0,3.472-1.24,4.96-5.208,4.96-3.72.248-15.872.248-27.032-.248,3.968,7.688,7.936,21.08,8.928,29.264,18.848,0,31.744-.744,40.672-5.7,8.928-4.712,11.656-12.9,11.656-28.024Zm132.184,130.2h-30.5V-98.456h30.5Zm53.32-28.024v-7.936a172.816,172.816,0,0,0,30.5,18.6c4.464-7.936,13.392-19.592,20.336-25.3a151.469,151.469,0,0,1-38.688-22.816,331.555,331.555,0,0,0,32.984-26.784l-21.576-15.376c-6.944,8.432-17.856,18.6-28.024,26.784-3.72-4.216-7.44-8.432-10.912-12.9,10.168-7.44,21.576-17.112,31.744-26.288l-22.32-15.872a234.18,234.18,0,0,1-22.072,23.064,172.265,172.265,0,0,1-12.4-26.536l-26.536,7.44c10.912,29.264,25.792,55.056,45.136,75.888H972.656a172.493,172.493,0,0,0,40.176-65.968l-19.592-9.176-5.208.992H923.3v25.3H973.9a138.726,138.726,0,0,1-15.624,22.32c-6.944-5.952-16.368-13.144-23.808-18.352l-18.6,15.376a264.691,264.691,0,0,1,24.552,21.08,153.44,153.44,0,0,1-41.168,25.544A128.246,128.246,0,0,1,917.1-87.048a202.709,202.709,0,0,0,32.984-19.592v8.184H970.92v28.024H917.848V-43.4h49.1c-6.2,16.616-21.08,31.992-55.3,42.408,6.2,5.456,15.128,16.864,18.848,23.56C976.376,7.192,992.744-17.36,998.2-43.4h32.736v27.032c0,27.528,6.7,36.208,33.48,36.208h27.032c21.824,0,29.512-9.92,32.488-42.656-8.432-1.736-20.336-6.7-26.536-11.656-.992,23.312-2.232,28.272-8.68,28.272h-19.1c-6.944,0-7.936-1.488-7.936-10.416V-43.4h52.824V-70.432h-52.824V-98.456Zm217.248-11.16V-117.8h18.352c13.144,0,21.824.248,27.28.744V-150.04c-6.7,1.24-14.136,1.736-27.28,1.736H1301.5v-26.04a156.241,156.241,0,0,1,1.736-23.064h-35.464a163.655,163.655,0,0,1,1.488,23.064v26.04h-58.776v-24.552a151.586,151.586,0,0,1,1.488-22.32H1176.76c.744,7.44,1.488,15.128,1.488,22.32V-148.3h-21.08a161.09,161.09,0,0,1-26.784-2.232v33.728c5.456-.5,14.384-.992,26.784-.992h21.08v33.728a200.56,200.56,0,0,1-1.488,26.04h34.72c-.248-4.96-.992-15.128-.992-26.04V-117.8h58.776v9.424c0,61.008-21.08,82.336-68.944,98.952l26.536,25.048C1286.624-10.664,1301.5-48.112,1301.5-109.616Zm60.512-5.208v38.936c9.176-.744,25.792-1.24,39.928-1.24H1535.12c10.416,0,23.064.992,29.016,1.24v-38.936c-6.448.5-17.36,1.488-29.016,1.488H1401.944C1389.048-113.336,1370.944-114.08,1362.016-114.824ZM1704.5-193.44l-36.208-11.9a119.306,119.306,0,0,1-11.16,26.04c-12.4,21.328-33.976,53.32-77.376,79.856l27.776,20.584c24.3-16.616,45.88-38.44,62.5-60.016h69.688c-3.968,18.6-18.352,48.36-35.216,67.7-21.576,24.552-49.1,46.128-99.944,61.256l29.264,26.288c46.624-18.352,76.632-41.168,100.192-69.936,22.32-27.776,36.456-60.76,43.152-82.832a99.284,99.284,0,0,1,8.184-17.856l-25.3-15.624a79.522,79.522,0,0,1-21.576,2.976h-49.848c.248-.5.5-.744.744-1.24C1692.352-173.6,1698.8-184.76,1704.5-193.44ZM1902.9-5.456l20.832,17.112a52.986,52.986,0,0,1,10.664-7.44c27.776-14.136,63.488-40.92,84.072-67.7l-19.1-27.28c-16.616,24.056-41.168,43.648-61.256,52.328v-129.7a125.922,125.922,0,0,1,1.736-21.576H1902.9a109.951,109.951,0,0,1,1.984,21.328V-23.808A94.375,94.375,0,0,1,1902.9-5.456ZM1788.08-9.176l30.256,20.088a145.409,145.409,0,0,0,44.144-71.176c6.7-25.048,7.44-77.376,7.44-106.64a163.364,163.364,0,0,1,1.736-22.568H1835.2c1.488,6.2,2.232,12.9,2.232,22.816,0,30.008-.248,76.88-7.192,98.208C1823.3-47.368,1809.9-24.552,1788.08-9.176Z" transform="translate(484 634)" fill="#fff"/>
  </g>
</svg>
